<?xml version="1.0" encoding="UTF-8" standalone="no"?>
<svg width="70px" height="105px" viewBox="0 0 70 105" version="1.1" xmlns="http://www.w3.org/2000/svg" xmlns:xlink="http://www.w3.org/1999/xlink" xmlns:sketch="http://www.bohemiancoding.com/sketch/ns">
    <!-- Generator: Sketch 3.3.2 (12043) - http://www.bohemiancoding.com/sketch -->
    <title></title>
    <desc>Created with Sketch.</desc>
    <defs></defs>
    <g id="Page-1" stroke="none" stroke-width="1" fill="none" fill-rule="evenodd" sketch:type="MSPage">
        <g id="Artboard-15-Copy" sketch:type="MSArtboardGroup" transform="translate(0.000000, -3.000000)" fill="#4D4D4D">
            <path d="M52.5,38 C52.5,33.1692467 50.7910327,29.044939 47.3730469,25.6269531 C43.955061,22.2089673 39.8307533,20.5 35,20.5 C30.1692467,20.5 26.044939,22.2089673 22.6269531,25.6269531 C19.2089673,29.044939 17.5,33.1692467 17.5,38 C17.5,42.8307533 19.2089673,46.955061 22.6269531,50.3730469 C26.044939,53.7910327 30.1692467,55.5 35,55.5 C39.8307533,55.5 43.955061,53.7910327 47.3730469,50.3730469 C50.7910327,46.955061 52.5,42.8307533 52.5,38 L52.5,38 Z M70,38 C70,42.9674728 69.2480544,47.046208 67.7441406,50.2363281 L42.8613281,103.146484 C42.1321578,104.650398 41.0498119,105.835282 39.6142578,106.701172 C38.1787038,107.567062 36.6406332,108 35,108 C33.3593668,108 31.8212962,107.567062 30.3857422,106.701172 C28.9501881,105.835282 27.8906284,104.650398 27.2070312,103.146484 L2.25585938,50.2363281 C0.751945605,47.046208 0,42.9674728 0,38 C0,28.3384934 3.41793457,20.0898779 10.2539062,13.2539062 C17.0898779,6.41793457 25.3384934,3 35,3 C44.6615066,3 52.9101221,6.41793457 59.7460938,13.2539062 C66.5820654,20.0898779 70,28.3384934 70,38 L70,38 Z" id="" sketch:type="MSShapeGroup"></path>
        </g>
    </g>
</svg>