<?xml version="1.0" encoding="UTF-8" standalone="no"?>
<svg width="183px" height="40px" viewBox="0 0 183 40" version="1.1" xmlns="http://www.w3.org/2000/svg" xmlns:xlink="http://www.w3.org/1999/xlink" xmlns:sketch="http://www.bohemiancoding.com/sketch/ns">
    <!-- Generator: Sketch 3.3.2 (12043) - http://www.bohemiancoding.com/sketch -->
    <title>Shape + Shape Copy 2 + Shape Copy Copy + Barrios Copy</title>
    <desc>Created with Sketch.</desc>
    <defs></defs>
    <g id="Page-1" stroke="none" stroke-width="1" fill="none" fill-rule="evenodd" sketch:type="MSPage">
        <g id="Artboard-1-Copy-4" sketch:type="MSArtboardGroup" transform="translate(-22.000000, -13.000000)">
            <g id="Shape-+-Shape-Copy-2-+-Shape-Copy-Copy-+-Barrios-Copy" sketch:type="MSLayerGroup" transform="translate(22.000000, 13.000000)">
                <g id="Shape-+-Shape-Copy-2-+-Shape-Copy-Copy" fill="#FFFFFF" sketch:type="MSShapeGroup">
                    <path d="M15,15.2 L6.3710082,15.2 C5.17282434,15.2 4.2,16.1720112 4.2,17.3673876 L4.2,26.8527081 C4.2,28.0444227 5.17531539,29.0200957 6.3710082,29.0200957 L12.3129267,29.0200957 L12.3129267,29.0200957 L16,34.1819983 L18.2684849,31.0061195 C19.3825707,32.0217841 20.7268226,32.7890502 22.2137284,33.2200957 L22.0030262,33.2200957 L22.0030262,33.2200957 L18.2098346,38.6439208 C18.2098346,38.6439208 17.5251889,39.8581908 16,39.8581902 C14.4748111,39.8581896 13.8868142,38.6439209 13.8868142,38.6439209 L10.0496386,33.2200957 L6.3710082,33.2200957 C2.85239753,33.2200957 0,30.3606958 0,26.8527081 L0,17.3673876 C0,13.8507765 2.85486713,11 6.3710082,11 L15.0000023,11 C15.0000008,11.0022977 15,11.0045955 15,11.0068936 L15,15.2 Z" id="Shape"></path>
                    <path d="M74.761387,15.2 L66.1323952,15.2 C64.9342114,15.2 63.961387,16.1720112 63.961387,17.3673876 L63.961387,26.8527081 C63.961387,28.0444227 64.9367024,29.0200957 66.1323952,29.0200957 L72.0743137,29.0200957 L72.0743137,29.0200957 L75.761387,34.1819983 L78.0298719,31.0061195 C79.1439577,32.0217841 80.4882096,32.7890502 81.9751154,33.2200957 L81.7644132,33.2200957 L81.7644132,33.2200957 L77.9712216,38.6439208 C77.9712216,38.6439208 77.2865759,39.8581908 75.761387,39.8581902 C74.2361981,39.8581896 73.6482012,38.6439209 73.6482012,38.6439209 L69.8110256,33.2200957 L66.1323952,33.2200957 C62.6137845,33.2200957 59.761387,30.3606958 59.761387,26.8527081 L59.761387,17.3673876 C59.761387,13.8507765 62.6162541,11 66.1323952,11 L74.7613893,11 C74.7613878,11.0022977 74.761387,11.0045955 74.761387,11.0068936 L74.761387,15.2 Z" id="Shape-Copy-2" transform="translate(70.868251, 25.429095) scale(-1, 1) translate(-70.868251, -25.429095) "></path>
                    <path d="M40.9397941,34.031256 L40.929374,34.0458442 L35.1508025,25.9558441 L25.3684561,25.9558442 C24.1701034,25.9558442 23.2,24.9849301 23.2,23.7789981 L23.2,6.37684608 C23.2,5.17216428 24.1706016,4.2 25.3684561,4.2 L55.7918792,4.2 C56.9902319,4.2 57.9603353,5.17091403 57.9603353,6.37684608 L57.9603353,23.7789981 C57.9603353,24.9836799 56.9897337,25.9558442 55.7918792,25.9558442 L46.7079455,25.9558441 L42.5818089,31.7324353 L40.9535439,34.0504829 L40.9397941,34.031256 Z M48.9801864,30.1558442 L55.7918792,30.1558442 C59.3117738,30.1558442 62.1603353,27.3008329 62.1603353,23.7789981 L62.1603353,6.37684608 C62.1603353,2.85056865 59.3090804,0 55.7918792,0 L25.3684561,0 C21.8485615,0 19,2.85501124 19,6.37684608 L19,23.7789981 C19,27.3052755 21.8512549,30.1558442 25.3684561,30.1558442 L32.9074813,30.1558442 L38.8161882,38.5077667 C38.8161882,38.5077667 39.4041851,39.7220355 40.929374,39.722036 C42.4545629,39.7220366 43.1392086,38.5077666 43.1392086,38.5077666 L48.9801864,30.1558442 L48.9801864,30.1558442 Z" id="Shape"></path>
                </g>
                <path d="M107.16284,16.7332 C107.16284,17.731125 106.996522,18.5765765 106.66388,19.26958 C106.331238,19.9625835 105.878483,20.5308378 105.3056,20.97436 C104.732717,21.4178822 104.058204,21.741279 103.28204,21.94456 C102.505876,22.147841 101.674284,22.24948 100.78724,22.24948 C99.9001956,22.24948 98.8884257,22.2171403 97.7519,22.15246 C96.6153743,22.0877797 95.4927255,21.9907606 94.38392,21.8614 L94.38392,3.51076 C95.1970441,3.39987945 96.1395146,3.30748037 97.21136,3.23356 C98.2832054,3.15963963 99.3273149,3.12268 100.34372,3.12268 C101.267725,3.12268 102.103936,3.21507908 102.85238,3.39988 C103.600824,3.58468092 104.242997,3.87111806 104.77892,4.2592 C105.314843,4.64728194 105.730639,5.14623695 106.02632,5.75608 C106.322001,6.36592305 106.46984,7.10511566 106.46984,7.97368 C106.46984,9.00856517 106.234222,9.8955963 105.76298,10.6348 C105.291738,11.3740037 104.640324,11.9006784 103.80872,12.21484 L103.80872,12.46432 C106.044811,13.0372029 107.16284,14.4601486 107.16284,16.7332 L107.16284,16.7332 Z M102.50588,8.47264 C102.50588,7.67799603 102.311842,7.10974171 101.92376,6.76786 C101.535678,6.42597829 100.972044,6.25504 100.23284,6.25504 C99.9741187,6.25504 99.7015414,6.25965995 99.4151,6.2689 C99.1286586,6.27814005 98.782162,6.30123982 98.3756,6.3382 L98.3756,11.0506 L100.42688,11.0506 C101.092163,11.0506 101.604978,10.847322 101.96534,10.44076 C102.325702,10.034198 102.50588,9.37816453 102.50588,8.47264 L102.50588,8.47264 Z M102.92168,16.40056 C102.92168,15.5135156 102.690682,14.8944418 102.22868,14.54332 C101.766678,14.1921982 101.203043,14.01664 100.53776,14.01664 L98.3756,14.01664 L98.3756,18.97852 C98.7636819,19.0154802 99.1378982,19.03858 99.49826,19.04782 C99.8586218,19.05706 100.177399,19.06168 100.4546,19.06168 C101.323164,19.06168 101.951478,18.8353023 102.33956,18.38254 C102.727642,17.9297777 102.92168,17.2691243 102.92168,16.40056 L102.92168,16.40056 Z M118.50032,11.02288 C118.278559,10.8750393 117.996742,10.7503005 117.65486,10.64866 C117.312978,10.5470195 116.957242,10.4962 116.58764,10.4962 C116.088678,10.4962 115.668262,10.5701193 115.32638,10.71796 C114.984498,10.8658007 114.702681,11.1106583 114.48092,11.45254 C114.259159,11.7944217 114.097461,12.2425572 113.99582,12.79696 C113.894179,13.3513628 113.84336,14.0351159 113.84336,14.84824 C113.84336,15.6613641 113.88956,16.3358773 113.98196,16.8718 C114.07436,17.4077227 114.217579,17.8327584 114.41162,18.14692 C114.605661,18.4610816 114.855138,18.6828394 115.16006,18.8122 C115.464982,18.9415606 115.839198,19.00624 116.28272,19.00624 C116.800163,19.00624 117.234438,18.9646604 117.58556,18.8815 C117.936682,18.7983396 118.241599,18.6828407 118.50032,18.535 L118.50032,11.02288 Z M119.05472,20.22592 C118.426397,20.9836038 117.779603,21.5148985 117.11432,21.81982 C116.449037,22.1247415 115.802243,22.2772 115.17392,22.2772 C113.436791,22.2772 112.115485,21.6858459 111.20996,20.50312 C110.304435,19.3203941 109.85168,17.5463318 109.85168,15.18088 C109.85168,13.9242337 110.008758,12.8015849 110.32292,11.8129 C110.637082,10.8242151 111.071357,9.99262337 111.62576,9.3181 C112.180163,8.64357663 112.845436,8.13076176 113.6216,7.77964 C114.397764,7.42851824 115.247835,7.25296 116.17184,7.25296 C116.559922,7.25296 116.957238,7.28529968 117.3638,7.34998 C117.770362,7.41466032 118.149198,7.50243945 118.50032,7.61332 C118.777521,7.50243945 119.119398,7.41928028 119.52596,7.36384 C119.932522,7.30839972 120.348318,7.28068 120.77336,7.28068 C121.032081,7.28068 121.290799,7.29453986 121.54952,7.32226 C121.808241,7.34998014 122.048479,7.38231982 122.27024,7.41928 L122.27024,17.50936 C122.27024,17.8789618 122.325679,18.1422992 122.43656,18.29938 C122.547441,18.4564608 122.769198,18.535 123.10184,18.535 L124.76504,18.535 L124.76504,19.7824 C124.76504,20.2628824 124.691121,20.6601984 124.54328,20.97436 C124.395439,21.2885216 124.196781,21.542619 123.9473,21.73666 C123.697819,21.930701 123.406762,22.0692996 123.07412,22.15246 C122.741478,22.2356204 122.399602,22.2772 122.04848,22.2772 C121.771279,22.2772 121.489461,22.2448603 121.20302,22.18018 C120.916579,22.1154997 120.644001,22.0046208 120.38528,21.84754 C120.126559,21.6904592 119.886321,21.4779413 119.66456,21.20998 C119.442799,20.9420187 119.267241,20.6140019 119.13788,20.22592 L119.05472,20.22592 Z M135.07688,7.41928 C135.07688,8.06608323 135.04454,8.71287677 134.97986,9.35968 C134.91518,10.0064832 134.83664,10.6532768 134.74424,11.30008 C134.577919,11.2631198 134.370021,11.2261602 134.12054,11.1892 C133.871059,11.1522398 133.635441,11.13376 133.41368,11.13376 C132.896237,11.13376 132.420382,11.1984394 131.9861,11.3278 C131.551818,11.4571606 131.131402,11.623479 130.72484,11.82676 L130.72484,22 L126.98264,22 L126.98264,7.66876 C127.518563,7.59483963 128.128397,7.53940018 128.81216,7.50244 C129.495923,7.46547982 130.133477,7.447 130.72484,7.447 L130.72484,9.30424 L130.91888,9.30424 C131.251522,8.8237576 131.561059,8.44954134 131.8475,8.18158 C132.133941,7.91361866 132.406519,7.71034069 132.66524,7.57174 C132.923961,7.43313931 133.168819,7.34536018 133.39982,7.3084 C133.630821,7.27143982 133.857199,7.25296 134.07896,7.25296 C134.208321,7.25296 134.370019,7.26681986 134.56406,7.29454 C134.758101,7.32226014 134.929039,7.36383972 135.07688,7.41928 L135.07688,7.41928 Z M146.08172,7.41928 C146.08172,8.06608323 146.04938,8.71287677 145.9847,9.35968 C145.92002,10.0064832 145.84148,10.6532768 145.74908,11.30008 C145.582759,11.2631198 145.374861,11.2261602 145.12538,11.1892 C144.875899,11.1522398 144.640281,11.13376 144.41852,11.13376 C143.901077,11.13376 143.425222,11.1984394 142.99094,11.3278 C142.556658,11.4571606 142.136242,11.623479 141.72968,11.82676 L141.72968,22 L137.98748,22 L137.98748,7.66876 C138.523403,7.59483963 139.133237,7.53940018 139.817,7.50244 C140.500763,7.46547982 141.138317,7.447 141.72968,7.447 L141.72968,9.30424 L141.92372,9.30424 C142.256362,8.8237576 142.565899,8.44954134 142.85234,8.18158 C143.138781,7.91361866 143.411359,7.71034069 143.67008,7.57174 C143.928801,7.43313931 144.173659,7.34536018 144.40466,7.3084 C144.635661,7.27143982 144.862039,7.25296 145.0838,7.25296 C145.213161,7.25296 145.374859,7.26681986 145.5689,7.29454 C145.762941,7.32226014 145.933879,7.36383972 146.08172,7.41928 L146.08172,7.41928 Z M152.95628,3.78796 C152.95628,4.36084286 152.780722,4.85979787 152.4296,5.28484 C152.078478,5.70988213 151.551804,5.9224 150.84956,5.9224 C150.147316,5.9224 149.625262,5.70526217 149.28338,5.27098 C148.941498,4.83669783 148.77056,4.34236277 148.77056,3.78796 C148.77056,3.23355723 148.941498,2.72998226 149.28338,2.27722 C149.625262,1.82445774 150.156556,1.59808 150.87728,1.59808 C151.579524,1.59808 152.101578,1.81983778 152.44346,2.26336 C152.785342,2.70688222 152.95628,3.21507714 152.95628,3.78796 L152.95628,3.78796 Z M148.99232,22 L148.99232,7.53016 L152.73452,7.53016 L152.73452,22 L148.99232,22 Z M169.50512,14.76508 C169.50512,15.9847661 169.334182,17.0612153 168.9923,17.99446 C168.650418,18.9277047 168.179183,19.7130968 167.57858,20.35066 C166.977977,20.9882232 166.271124,21.4686984 165.458,21.7921 C164.644876,22.1155016 163.767085,22.2772 162.8246,22.2772 C161.863635,22.2772 160.976604,22.1293615 160.16348,21.83368 C159.350356,21.5379985 158.657363,21.0806231 158.08448,20.46154 C157.511597,19.8424569 157.063462,19.0616847 156.74006,18.1192 C156.416658,17.1767153 156.25496,16.0586865 156.25496,14.76508 C156.25496,13.6008342 156.421278,12.5521047 156.75392,11.61886 C157.086562,10.6856153 157.543937,9.89560323 158.12606,9.2488 C158.708183,8.60199677 159.410416,8.10766171 160.23278,7.76578 C161.055144,7.42389829 161.946795,7.25296 162.90776,7.25296 C163.850245,7.25296 164.723416,7.39155861 165.5273,7.66876 C166.331184,7.94596139 167.028797,8.38947695 167.62016,8.99932 C168.211523,9.60916305 168.673518,10.3899352 169.00616,11.34166 C169.338802,12.2933848 169.50512,13.4345133 169.50512,14.76508 L169.50512,14.76508 Z M165.51344,14.76508 C165.51344,13.2127522 165.296302,12.0993434 164.86202,11.42482 C164.427738,10.7502966 163.767084,10.41304 162.88004,10.41304 C162.029956,10.41304 161.387782,10.7502966 160.9535,11.42482 C160.519218,12.0993434 160.30208,13.2127522 160.30208,14.76508 C160.30208,16.3358879 160.496118,17.4539167 160.8842,18.1192 C161.272282,18.7844833 161.919075,19.11712 162.8246,19.11712 C163.711644,19.11712 164.381538,18.7891033 164.8343,18.13306 C165.287062,17.4770167 165.51344,16.3543679 165.51344,14.76508 L165.51344,14.76508 Z M182.47808,17.62024 C182.47808,18.4333641 182.311762,19.135597 181.97912,19.72696 C181.646478,20.318323 181.212203,20.8034181 180.67628,21.18226 C180.140357,21.5611019 179.521284,21.8382991 178.81904,22.01386 C178.116796,22.1894209 177.405324,22.2772 176.6846,22.2772 C175.852996,22.2772 175.021404,22.180181 174.1898,21.98614 C173.358196,21.792099 172.646723,21.5380016 172.05536,21.22384 C172.203201,20.5955169 172.337179,20.0272625 172.4573,19.51906 C172.577421,19.0108575 172.729879,18.461083 172.91468,17.86972 C173.487563,18.1838816 174.185176,18.4333591 175.00754,18.61816 C175.829904,18.8029609 176.592196,18.89536 177.29444,18.89536 C177.774922,18.89536 178.112179,18.793721 178.30622,18.59044 C178.500261,18.387159 178.59728,18.1007218 178.59728,17.73112 C178.59728,17.3984783 178.440202,17.1490008 178.12604,16.98268 C177.811878,16.8163592 177.414562,16.6592807 176.93408,16.51144 C176.453598,16.3635993 175.940783,16.2111408 175.39562,16.05406 C174.850457,15.8969792 174.337642,15.6613616 173.85716,15.3472 C173.376678,15.0330384 172.979362,14.6172426 172.6652,14.0998 C172.351038,13.5823574 172.19396,12.9078442 172.19396,12.07624 C172.19396,11.2446358 172.364898,10.528543 172.70678,9.92794 C173.048662,9.327337 173.501417,8.82838199 174.06506,8.43106 C174.628703,8.03373801 175.280116,7.73806097 176.01932,7.54402 C176.758524,7.34997903 177.525436,7.25296 178.32008,7.25296 C178.800562,7.25296 179.378057,7.28991963 180.05258,7.36384 C180.727103,7.43776037 181.350797,7.54863926 181.92368,7.69648 C181.88672,8.21392259 181.82666,8.75907714 181.7435,9.33196 C181.66034,9.90484286 181.554081,10.4684772 181.42472,11.02288 C181.165999,10.9489596 180.870322,10.8796603 180.53768,10.81498 C180.205038,10.7502997 179.858542,10.6902403 179.49818,10.6348 C179.137818,10.5793597 178.777462,10.5377801 178.4171,10.51006 C178.056738,10.4823399 177.728721,10.46848 177.43304,10.46848 C176.545996,10.46848 176.10248,10.8565561 176.10248,11.63272 C176.10248,11.9653617 176.259558,12.2194591 176.57372,12.39502 C176.887882,12.5705809 177.280578,12.7276593 177.75182,12.86626 C178.223062,13.0048607 178.735877,13.1619391 179.29028,13.3375 C179.844683,13.5130609 180.357498,13.7671583 180.82874,14.0998 C181.299982,14.4324417 181.692678,14.8759572 182.00684,15.43036 C182.321002,15.9847628 182.47808,16.7147155 182.47808,17.62024 L182.47808,17.62024 Z" id="Barrios" fill="#FFFFFF" sketch:type="MSShapeGroup"></path>
                <path d="M100.425,36.35 C100.425,36.6100013 100.41,36.8799986 100.38,37.16 C100.35,37.4400014 100.315,37.7199986 100.275,38 L94.38,38 L94.38,27.89 L100.17,27.89 C100.17,28.1400012 100.1575,28.4124985 100.1325,28.7075 C100.1075,29.0025015 100.075,29.2799987 100.035,29.54 L96.255,29.54 L96.255,31.985 L99.06,31.985 L99.06,33.605 L96.255,33.605 L96.255,36.35 L100.425,36.35 Z M110.175,37.94 C110.054999,37.9600001 109.920001,37.9774999 109.77,37.9925 C109.619999,38.0075001 109.465001,38.0224999 109.305,38.0375 C109.144999,38.0525001 108.987501,38.0625 108.8325,38.0675 C108.677499,38.0725 108.540001,38.075 108.42,38.075 L104.76,31.64 C104.73,31.5799997 104.6925,31.5025005 104.6475,31.4075 C104.6025,31.3124995 104.5575,31.2125005 104.5125,31.1075 C104.4675,31.0024995 104.425,30.8975005 104.385,30.7925 C104.345,30.6874995 104.31,30.5900005 104.28,30.5 L104.145,30.515 C104.165,30.7250011 104.1825,30.932499 104.1975,31.1375 C104.2125,31.342501 104.22,31.5249992 104.22,31.685 L104.22,38 L102.54,38 L102.54,27.995 C102.680001,27.9749999 102.837499,27.9550001 103.0125,27.935 C103.187501,27.9149999 103.362499,27.9000001 103.5375,27.89 C103.712501,27.8799999 103.882499,27.8725 104.0475,27.8675 C104.212501,27.8625 104.359999,27.86 104.49,27.86 L107.955,33.95 C108.035,34.1000007 108.12,34.2799989 108.21,34.49 C108.3,34.700001 108.375,34.899999 108.435,35.09 L108.57,35.075 C108.55,34.9149992 108.5325,34.7150012 108.5175,34.475 C108.5025,34.2349988 108.495,34.0300009 108.495,33.86 L108.495,27.89 L110.175,27.89 L110.175,37.94 Z M123.195,37.91 C122.904999,37.9700003 122.607502,38.0124999 122.3025,38.0375 C121.997498,38.0625001 121.685002,38.075 121.365,38.075 L120.54,35.315 L117.375,35.315 L116.55,38.075 C116.269999,38.075 115.982501,38.0625001 115.6875,38.0375 C115.392499,38.0124999 115.115001,37.9700003 114.855,37.91 C115.315002,36.2699918 115.807497,34.6175083 116.3325,32.9525 C116.857503,31.2874917 117.419997,29.6000085 118.02,27.89 L120.075,27.89 C120.635003,29.5700084 121.177497,31.2549915 121.7025,32.945 C122.227503,34.6350085 122.724998,36.2899919 123.195,37.91 L123.195,37.91 Z M119.13,30.56 C119.09,30.4399994 119.0625,30.3200006 119.0475,30.2 C119.0325,30.0799994 119.02,29.9400008 119.01,29.78 L118.89,29.78 C118.88,29.9400008 118.87,30.0799994 118.86,30.2 C118.85,30.3200006 118.825,30.4399994 118.785,30.56 L117.81,33.77 L120.09,33.77 L119.13,30.56 Z M131.46,37.49 C131.079998,37.7200012 130.635003,37.8874995 130.125,37.9925 C129.614997,38.0975005 129.135002,38.15 128.685,38.15 C127.224993,38.15 126.120004,37.7100044 125.37,36.83 C124.619996,35.9499956 124.245,34.6500086 124.245,32.93 C124.245,32.0299955 124.354999,31.2525033 124.575,30.5975 C124.795001,29.9424967 125.099998,29.4025021 125.49,28.9775 C125.880002,28.5524979 126.339997,28.240001 126.87,28.04 C127.400003,27.839999 127.974997,27.74 128.595,27.74 C128.825001,27.74 129.064999,27.7524999 129.315,27.7775 C129.565001,27.8025001 129.809999,27.8349998 130.05,27.875 C130.290001,27.9150002 130.514999,27.9649997 130.725,28.025 C130.935001,28.0850003 131.109999,28.1549996 131.25,28.235 C131.23,28.4750012 131.1925,28.7449985 131.1375,29.045 C131.0825,29.3450015 131.025,29.6299987 130.965,29.9 C130.624998,29.7299991 130.257502,29.6025004 129.8625,29.5175 C129.467498,29.4324996 129.075002,29.39 128.685,29.39 C128.324998,29.39 127.995002,29.4474994 127.695,29.5625 C127.394999,29.6775006 127.137501,29.8699986 126.9225,30.14 C126.707499,30.4100014 126.542501,30.7724977 126.4275,31.2275 C126.312499,31.6825023 126.255,32.2499966 126.255,32.93 C126.255,34.2200064 126.457498,35.1374973 126.8625,35.6825 C127.267502,36.2275027 127.889996,36.5 128.73,36.5 C129.160002,36.5 129.592498,36.4350006 130.0275,36.305 C130.462502,36.1749994 130.839998,36.010001 131.16,35.81 C131.23,36.0700013 131.2925,36.3399986 131.3475,36.62 C131.4025,36.9000014 131.44,37.1899985 131.46,37.49 L131.46,37.49 Z M140.1,37.49 C139.719998,37.7200012 139.275003,37.8874995 138.765,37.9925 C138.254997,38.0975005 137.775002,38.15 137.325,38.15 C135.864993,38.15 134.760004,37.7100044 134.01,36.83 C133.259996,35.9499956 132.885,34.6500086 132.885,32.93 C132.885,32.0299955 132.994999,31.2525033 133.215,30.5975 C133.435001,29.9424967 133.739998,29.4025021 134.13,28.9775 C134.520002,28.5524979 134.979997,28.240001 135.51,28.04 C136.040003,27.839999 136.614997,27.74 137.235,27.74 C137.465001,27.74 137.704999,27.7524999 137.955,27.7775 C138.205001,27.8025001 138.449999,27.8349998 138.69,27.875 C138.930001,27.9150002 139.154999,27.9649997 139.365,28.025 C139.575001,28.0850003 139.749999,28.1549996 139.89,28.235 C139.87,28.4750012 139.8325,28.7449985 139.7775,29.045 C139.7225,29.3450015 139.665,29.6299987 139.605,29.9 C139.264998,29.7299991 138.897502,29.6025004 138.5025,29.5175 C138.107498,29.4324996 137.715002,29.39 137.325,29.39 C136.964998,29.39 136.635002,29.4474994 136.335,29.5625 C136.034999,29.6775006 135.777501,29.8699986 135.5625,30.14 C135.347499,30.4100014 135.182501,30.7724977 135.0675,31.2275 C134.952499,31.6825023 134.895,32.2499966 134.895,32.93 C134.895,34.2200064 135.097498,35.1374973 135.5025,35.6825 C135.907502,36.2275027 136.529996,36.5 137.37,36.5 C137.800002,36.5 138.232498,36.4350006 138.6675,36.305 C139.102502,36.1749994 139.479998,36.010001 139.8,35.81 C139.87,36.0700013 139.9325,36.3399986 139.9875,36.62 C140.0425,36.9000014 140.08,37.1899985 140.1,37.49 L140.1,37.49 Z M142.08,38 L142.08,27.89 L143.955,27.89 L143.955,38 L142.08,38 Z M154.68,32.945 C154.68,33.8550046 154.577501,34.6374967 154.3725,35.2925 C154.167499,35.9475033 153.877502,36.4874979 153.5025,36.9125 C153.127498,37.3375021 152.677503,37.649999 152.1525,37.85 C151.627497,38.050001 151.050003,38.15 150.42,38.15 C149.769997,38.15 149.182503,38.052501 148.6575,37.8575 C148.132497,37.662499 147.685002,37.3575021 147.315,36.9425 C146.944998,36.5274979 146.660001,35.9950032 146.46,35.345 C146.259999,34.6949968 146.16,33.9150045 146.16,33.005 C146.16,32.1349957 146.259999,31.3700033 146.46,30.71 C146.660001,30.0499967 146.947498,29.5000022 147.3225,29.06 C147.697502,28.6199978 148.147497,28.2900011 148.6725,28.07 C149.197503,27.8499989 149.779997,27.74 150.42,27.74 C151.070003,27.74 151.657497,27.839999 152.1825,28.04 C152.707503,28.240001 153.154998,28.5524979 153.525,28.9775 C153.895002,29.4025021 154.179999,29.9424967 154.38,30.5975 C154.580001,31.2525033 154.68,32.0349954 154.68,32.945 L154.68,32.945 Z M152.67,32.945 C152.67,32.2549966 152.620001,31.6800023 152.52,31.22 C152.42,30.7599977 152.275001,30.3900014 152.085,30.11 C151.894999,29.8299986 151.660001,29.6325006 151.38,29.5175 C151.099999,29.4024994 150.780002,29.345 150.42,29.345 C150.049998,29.345 149.722501,29.4024994 149.4375,29.5175 C149.152499,29.6325006 148.917501,29.8299986 148.7325,30.11 C148.547499,30.3900014 148.4075,30.7599977 148.3125,31.22 C148.2175,31.6800023 148.17,32.2549966 148.17,32.945 C148.17,33.6050033 148.2125,34.1624977 148.2975,34.6175 C148.3825,35.0725023 148.517499,35.4424986 148.7025,35.7275 C148.887501,36.0125014 149.122499,36.2199994 149.4075,36.35 C149.692501,36.4800007 150.029998,36.545 150.42,36.545 C150.810002,36.545 151.147499,36.4825006 151.4325,36.3575 C151.717501,36.2324994 151.952499,36.0300014 152.1375,35.75 C152.322501,35.4699986 152.4575,35.1000023 152.5425,34.64 C152.6275,34.1799977 152.67,33.6150034 152.67,32.945 L152.67,32.945 Z M152.205,25.775 C152.094999,26.0850016 151.950001,26.3574988 151.77,26.5925 C151.589999,26.8275012 151.320002,27.0999985 150.96,27.41 C150.719999,27.41 150.457501,27.3975001 150.1725,27.3725 C149.887499,27.3474999 149.630001,27.3250001 149.4,27.305 L150.27,25.775 L152.205,25.775 Z M164.52,37.94 C164.399999,37.9600001 164.265001,37.9774999 164.115,37.9925 C163.964999,38.0075001 163.810001,38.0224999 163.65,38.0375 C163.489999,38.0525001 163.332501,38.0625 163.1775,38.0675 C163.022499,38.0725 162.885001,38.075 162.765,38.075 L159.105,31.64 C159.075,31.5799997 159.0375,31.5025005 158.9925,31.4075 C158.9475,31.3124995 158.9025,31.2125005 158.8575,31.1075 C158.8125,31.0024995 158.77,30.8975005 158.73,30.7925 C158.69,30.6874995 158.655,30.5900005 158.625,30.5 L158.49,30.515 C158.51,30.7250011 158.5275,30.932499 158.5425,31.1375 C158.5575,31.342501 158.565,31.5249992 158.565,31.685 L158.565,38 L156.885,38 L156.885,27.995 C157.025001,27.9749999 157.182499,27.9550001 157.3575,27.935 C157.532501,27.9149999 157.707499,27.9000001 157.8825,27.89 C158.057501,27.8799999 158.227499,27.8725 158.3925,27.8675 C158.557501,27.8625 158.704999,27.86 158.835,27.86 L162.3,33.95 C162.38,34.1000007 162.465,34.2799989 162.555,34.49 C162.645,34.700001 162.72,34.899999 162.78,35.09 L162.915,35.075 C162.895,34.9149992 162.8775,34.7150012 162.8625,34.475 C162.8475,34.2349988 162.84,34.0300009 162.84,33.86 L162.84,27.89 L164.52,27.89 L164.52,37.94 Z" id="Type-something" fill="#CEABD8" sketch:type="MSShapeGroup"></path>
            </g>
        </g>
    </g>
</svg>